<?xml version="1.0" standalone="no"?>
<!DOCTYPE svg PUBLIC "-//W3C//DTD SVG 20010904//EN"
 "http://www.w3.org/TR/2001/REC-SVG-20010904/DTD/svg10.dtd">
<svg version="1.0" xmlns="http://www.w3.org/2000/svg"
 width="376.000000pt" height="376.000000pt" viewBox="0 0 376.000000 376.000000"
 preserveAspectRatio="xMidYMid meet">
<metadata>
Created by potrace 1.11, written by Peter Selinger 2001-2013
</metadata>
<g transform="translate(0.000000,376.000000) scale(0.100000,-0.100000)"
fill="#000000" stroke="none">
<path d="M1690 3750 c-159 -22 -216 -177 -99 -269 26 -20 75 -37 96 -33 17 4
24 -13 30 -66 13 -111 16 -104 -62 -118 -120 -21 -129 -23 -211 -49 -110 -35
-284 -124 -380 -193 -56 -41 -83 -55 -90 -47 -5 6 -28 34 -52 63 l-43 52 20
26 c58 74 46 184 -25 230 -59 39 -144 25 -214 -36 -101 -87 -247 -245 -267
-290 -31 -68 -18 -135 34 -181 55 -47 135 -43 214 13 14 9 28 3 78 -37 34 -27
60 -54 57 -61 -3 -7 -22 -36 -43 -65 -127 -177 -226 -433 -247 -639 l-3 -35
-49 3 c-27 1 -58 5 -69 7 -11 2 -27 4 -35 4 -10 1 -17 12 -18 32 -7 97 -108
168 -195 140 -39 -13 -66 -40 -93 -91 -16 -31 -18 -60 -18 -240 0 -191 1 -208
22 -247 30 -58 73 -89 128 -92 79 -4 151 63 156 144 2 23 8 35 18 36 34 3 87
8 118 13 21 3 34 0 36 -7 2 -7 11 -54 20 -105 33 -185 105 -356 221 -527 36
-53 65 -99 65 -103 0 -4 -22 -23 -47 -42 -26 -19 -53 -41 -60 -49 -12 -11 -17
-11 -31 2 -103 89 -264 30 -258 -95 3 -53 15 -98 27 -98 5 0 9 -4 9 -10 0 -5
8 -18 18 -28 9 -10 46 -49 81 -86 76 -82 199 -186 218 -186 10 0 13 -18 13
-69 0 -194 67 -307 188 -319 74 -7 111 19 264 180 180 189 186 192 379 194
133 2 147 1 144 -14 -2 -9 -4 -24 -4 -32 -1 -10 -12 -17 -32 -18 -97 -7 -168
-108 -140 -195 13 -39 40 -66 91 -93 30 -15 63 -18 215 -20 214 -2 272 9 324
60 27 28 35 44 39 85 4 44 1 57 -22 90 -28 39 -80 70 -128 73 -27 2 -43 34
-29 57 4 6 58 9 136 7 177 -3 186 -8 361 -193 77 -80 156 -154 176 -164 100
-51 212 6 257 131 7 19 15 82 17 139 l4 104 37 17 c21 10 49 27 63 39 107 95
219 214 257 274 31 49 34 128 6 165 -53 71 -125 84 -213 39 -29 -15 -53 -27
-54 -27 -2 0 -14 9 -27 21 -13 11 -39 32 -56 47 -18 14 -33 28 -33 32 0 3 23
37 50 75 83 115 190 348 215 472 3 15 8 35 10 43 7 31 19 115 17 124 -6 20 21
35 52 30 18 -2 52 -6 76 -8 40 -3 44 -6 47 -32 11 -88 80 -153 160 -150 53 2
90 29 123 87 24 43 25 48 24 249 0 190 -2 208 -22 247 -62 118 -198 125 -261
13 -12 -22 -24 -52 -25 -67 -3 -31 -24 -39 -113 -47 -37 -4 -55 -1 -57 7 -2 7
-11 53 -20 104 -33 184 -106 359 -219 526 -37 54 -67 101 -66 105 0 4 27 29
60 55 55 45 62 48 78 33 81 -74 223 -44 252 53 23 78 -6 138 -127 263 -96 99
-172 165 -212 184 -46 22 -119 20 -150 -3 -81 -60 -88 -149 -20 -244 9 -14 3
-27 -37 -78 -26 -33 -50 -61 -52 -61 -3 0 -48 29 -102 65 -174 116 -388 201
-561 222 -25 3 -52 7 -60 9 -8 1 -18 3 -22 3 -4 1 -5 16 -3 34 4 27 13 108 14
128 1 4 13 7 27 7 37 0 95 31 123 65 19 23 25 42 25 83 1 63 -21 98 -84 133
-41 23 -54 25 -214 26 -94 1 -191 -1 -216 -5z"/>
</g>
</svg>
